<?xml version="1.0" encoding="utf-8"?>
<!-- Generator: Adobe Illustrator 22.1.0, SVG Export Plug-In . SVG Version: 6.00 Build 0)  -->
<svg version="1.1" id="btn_x5F_autoplay" xmlns="http://www.w3.org/2000/svg" xmlns:xlink="http://www.w3.org/1999/xlink" x="0px"
	 y="0px" viewBox="0 0 31.1 12.1" style="enable-background:new 0 0 31.1 12.1;" xml:space="preserve">
<style type="text/css">
	.st0{fill:#333333;}
	.st1{fill:url(#SVGID_1_);}
</style>
<g>
	<path class="st0" d="M30,12.1h-29c-0.6,0-1.1-0.5-1.1-1.1v-10C0,0.5,0.5,0,1.1,0h29c0.6,0,1.1,0.5,1.1,1.1v10
		C31.1,11.7,30.6,12.1,30,12.1z"/>
	<linearGradient id="SVGID_1_" gradientUnits="userSpaceOnUse" x1="0" y1="6.0242" x2="31.1028" y2="6.0242">
		<stop  offset="0" style="stop-color:#4D4948"/>
		<stop  offset="0.5" style="stop-color:#D8D8D8"/>
		<stop  offset="1" style="stop-color:#646261"/>
	</linearGradient>
	<path class="st1" d="M30.5,8.5H0.6C0.3,8.5,0,8.3,0,7.9l0-3.8c0-0.3,0.3-0.6,0.6-0.6h29.9c0.3,0,0.6,0.3,0.6,0.6v3.8
		C31.1,8.3,30.8,8.5,30.5,8.5z"/>
</g>
</svg>
