<?xml version="1.0" encoding="utf-8"?>
<!-- Generator: Adobe Illustrator 22.1.0, SVG Export Plug-In . SVG Version: 6.00 Build 0)  -->
<svg version="1.1" id="レイヤー_1" xmlns="http://www.w3.org/2000/svg" xmlns:xlink="http://www.w3.org/1999/xlink" x="0px"
	 y="0px" viewBox="0 0 91 91" style="enable-background:new 0 0 91 91;" xml:space="preserve">
<style type="text/css">
	.st0{fill:url(#SVGID_1_);}
	.st1{clip-path:url(#SVGID_3_);fill:#282828;}
	.st2{fill:none;}
	.st3{fill:#FFFFFF;}
	.st4{font-family:'Jun101Pro-Light-83pv-RKSJ-H';}
	.st5{font-size:8px;}
	.st6{fill:none;stroke:#00EB04;stroke-width:2;stroke-linecap:square;stroke-miterlimit:10;}
	.st7{fill:none;stroke:#00EB04;stroke-linecap:square;stroke-miterlimit:10;}
	.st8{fill:none;stroke:#EA5F00;stroke-linecap:square;stroke-miterlimit:10;}
</style>
<g>
	
		<radialGradient id="SVGID_1_" cx="45.5" cy="45.5" r="45.5" gradientTransform="matrix(0.5 -0.866 0.6928 0.4 -8.7733 66.7042)" gradientUnits="userSpaceOnUse">
		<stop  offset="0.8335" style="stop-color:#D8D8D8"/>
		<stop  offset="1" style="stop-color:#727272"/>
	</radialGradient>
	<circle class="st0" cx="45.5" cy="45.5" r="45.5"/>
	<g>
		<defs>
			<circle id="SVGID_2_" cx="45.5" cy="45.5" r="39.9"/>
		</defs>
		<use xlink:href="#SVGID_2_"  style="overflow:visible;fill:#020202;"/>
		<clipPath id="SVGID_3_">
			<use xlink:href="#SVGID_2_"  style="overflow:visible;"/>
		</clipPath>
		<circle class="st1" cx="45.5" cy="104.4" r="56.8"/>
	</g>
	<rect x="19.3" y="54.2" class="st2" width="53.1" height="27.9"/>
	<text transform="matrix(1 0 0 1 29.6833 61.275)"><tspan x="0" y="0" class="st3 st4 st5">TUNING</tspan><tspan x="-3.7" y="9.5" class="st3 st4 st5">BATTERY</tspan></text>
	<path class="st6" d="M74.8,38.2C58.6,22,32.4,22,16.2,38.2"/>
	<g>
		<line class="st7" x1="21.9" y1="26.1" x2="25.1" y2="31.8"/>
		<line class="st7" x1="69.1" y1="26.1" x2="65.9" y2="31.8"/>
	</g>
	<line class="st7" x1="45.5" y1="19.6" x2="45.5" y2="26.1"/>
	<line class="st8" x1="22.2" y1="26.4" x2="34.8" y2="48.2"/>
	<g>
		<line class="st7" x1="32.3" y1="21.6" x2="34" y2="27.8"/>
		<line class="st7" x1="58.7" y1="21.6" x2="57" y2="27.8"/>
	</g>
</g>
</svg>
