<?xml version="1.0" encoding="utf-8"?>
<!-- Generator: Adobe Illustrator 22.1.0, SVG Export Plug-In . SVG Version: 6.00 Build 0)  -->
<svg version="1.1" id="レイヤー_1" xmlns="http://www.w3.org/2000/svg" xmlns:xlink="http://www.w3.org/1999/xlink" x="0px"
	 y="0px" viewBox="0 0 25.6 25.6" style="enable-background:new 0 0 25.6 25.6;" xml:space="preserve">
<style type="text/css">
	.st0{opacity:0.84;}
	.st1{fill:url(#SVGID_1_);}
	.st2{fill:#FFFFFF;}
</style>
<g>
	<g>
		<g>
			<g class="st0">
				<linearGradient id="SVGID_1_" gradientUnits="userSpaceOnUse" x1="6.4082" y1="1.7155" x2="19.2288" y2="23.9214">
					<stop  offset="2.403846e-03" style="stop-color:#131313"/>
					<stop  offset="0.5" style="stop-color:#5F5F5F"/>
					<stop  offset="1" style="stop-color:#070001"/>
				</linearGradient>
				<circle class="st1" cx="12.8" cy="12.8" r="12.8"/>
			</g>
		</g>
	</g>
	<g>
		<g>
			<path class="st2" d="M11.9,12.4L6.6,9.8c-0.3-0.2-0.7,0.1-0.7,0.4v5c0,0.4,0.4,0.6,0.7,0.4l5.3-2.5
				C12.3,13.1,12.3,12.5,11.9,12.4z"/>
			<path class="st2" d="M18.2,12.4l-5.3-2.5c-0.3-0.2-0.7,0.1-0.7,0.4v5c0,0.4,0.4,0.6,0.7,0.4l5.3-2.5
				C18.6,13.1,18.6,12.5,18.2,12.4z"/>
		</g>
		<path class="st2" d="M19.4,15.9h-0.5c-0.2,0-0.3-0.1-0.3-0.3v-5.4c0-0.2,0.1-0.3,0.3-0.3h0.5c0.2,0,0.3,0.1,0.3,0.3v5.4
			C19.7,15.7,19.6,15.9,19.4,15.9z"/>
	</g>
</g>
</svg>
