<?xml version="1.0" encoding="utf-8"?>
<!-- Generator: Adobe Illustrator 22.1.0, SVG Export Plug-In . SVG Version: 6.00 Build 0)  -->
<svg version="1.1" id="レイヤー_1" xmlns="http://www.w3.org/2000/svg" xmlns:xlink="http://www.w3.org/1999/xlink" x="0px"
	 y="0px" viewBox="0 0 25.6 25.6" style="enable-background:new 0 0 25.6 25.6;" xml:space="preserve">
<style type="text/css">
	.st0{opacity:0.84;}
	.st1{fill:url(#SVGID_1_);}
	.st2{fill:#FFFFFF;}
</style>
<g>
	<g>
		<g>
			<g class="st0">
				<linearGradient id="SVGID_1_" gradientUnits="userSpaceOnUse" x1="6.4082" y1="1.7155" x2="19.2288" y2="23.9214">
					<stop  offset="2.403846e-03" style="stop-color:#131313"/>
					<stop  offset="0.5" style="stop-color:#5F5F5F"/>
					<stop  offset="1" style="stop-color:#070001"/>
				</linearGradient>
				<circle class="st1" cx="12.8" cy="12.8" r="12.8"/>
			</g>
		</g>
	</g>
	<g>
		<path class="st2" d="M16.7,11.9c-0.2-0.4-0.5-0.8-0.9-1.1c-0.4-0.3-0.9-0.4-1.4-0.4h-0.7l0.2-0.4c0-0.1,0-0.1,0-0.1
			c0,0-0.1,0-0.1,0L12,10.7c0,0-0.1,0.1-0.1,0.1c0,0,0,0.1,0.1,0.1l1.7,0.9c0,0,0.1,0,0.1,0c0,0,0.1-0.1,0-0.1l-0.2-0.4h0.7
			c0.2,0,0.4,0,0.6,0.1c0.3,0.1,0.5,0.3,0.7,0.5c0.2,0.2,0.3,0.5,0.3,0.8c0,0.2,0,0.4-0.1,0.6c-0.1,0.3-0.3,0.5-0.5,0.7
			c-0.2,0.2-0.5,0.3-0.8,0.3v1c0.3,0,0.7-0.1,1-0.2c0.4-0.2,0.8-0.5,1.1-0.9c0.3-0.4,0.4-0.9,0.4-1.4C16.9,12.5,16.8,12.2,16.7,11.9
			z"/>
		<path class="st2" d="M13.7,14.7l-1.7-0.9c0,0-0.1,0-0.1,0c0,0-0.1,0.1,0,0.1l0.2,0.4h-0.7c-0.2,0-0.4,0-0.6-0.1
			c-0.3-0.1-0.5-0.3-0.7-0.5c-0.2-0.2-0.3-0.5-0.3-0.8c0-0.2,0-0.4,0.1-0.6c0.1-0.3,0.3-0.5,0.5-0.7c0.2-0.2,0.5-0.3,0.8-0.3v-1
			c-0.3,0-0.7,0.1-1,0.2c-0.4,0.2-0.8,0.5-1.1,0.9c-0.3,0.4-0.4,0.9-0.4,1.4c0,0.3,0.1,0.7,0.2,1c0.2,0.4,0.5,0.8,0.9,1.1
			c0.4,0.3,0.9,0.4,1.4,0.4h0.7l-0.2,0.4c0,0.1,0,0.1,0,0.1c0,0,0.1,0,0.1,0l1.7-0.9c0,0,0.1-0.1,0.1-0.1
			C13.7,14.8,13.7,14.7,13.7,14.7z"/>
	</g>
</g>
</svg>
